<svg xmlns="http://www.w3.org/2000/svg" width="396.319" height="60.799" viewBox="-2 -2 396.319 60.799"><g id="svgGroup" stroke-linecap="round" fill-rule="nonzero" font-size="9pt" stroke="currentColor" stroke-width="0.5" fill="currentColor" style="stroke:currentColor;stroke-width:0.5;fill:currentColor"><path d="M 6.84 55.866 L 0 55.866 L 0 2.666 L 10.108 2.666 L 24.852 36.334 L 39.368 2.666 L 49.704 2.666 L 49.704 55.866 L 42.484 55.866 L 42.484 11.862 L 28.272 43.858 L 21.128 43.858 L 6.84 11.862 L 6.84 55.866 Z M 281.048 42.034 L 281.048 16.346 L 287.888 16.346 L 287.888 41.122 Q 287.888 45.758 289.864 48.228 Q 291.84 50.698 295.64 50.698 Q 298.756 50.698 301.682 49.444 Q 304.608 48.19 306.888 46.062 L 306.888 16.346 L 313.728 16.346 L 313.728 45.606 Q 313.728 48.874 315.134 49.9 Q 316.54 50.926 318.212 50.926 L 316.768 56.246 Q 309.7 56.246 308.028 50.622 Q 305.368 53.358 301.872 55.068 Q 298.376 56.778 294.348 56.778 Q 290.928 56.778 287.888 55.334 Q 284.848 53.89 282.948 50.66 Q 281.048 47.43 281.048 42.034 Z M 242.44 52.674 L 245.328 46.974 Q 247.304 48.646 250.306 49.748 Q 253.308 50.85 256.728 50.85 Q 260.984 50.85 263.15 49.444 Q 265.316 48.038 265.316 45.834 Q 265.316 44.238 264.518 43.022 Q 263.72 41.806 261.592 40.628 Q 259.464 39.45 255.436 38.082 Q 249.888 36.182 247.114 33.56 Q 244.34 30.938 244.34 26.302 Q 244.34 21.742 248.33 18.588 Q 252.32 15.434 259.388 15.434 Q 263.188 15.434 266.152 16.232 Q 269.116 17.03 271.472 18.246 L 269.572 23.87 Q 267.52 22.654 264.898 21.894 Q 262.276 21.134 259.084 21.134 Q 255.132 21.134 253.08 22.73 Q 251.028 24.326 251.028 26.226 Q 251.028 28.05 252.624 29.342 Q 254.22 30.634 258.856 32.154 Q 266.38 34.662 269.344 37.702 Q 272.308 40.742 272.308 45.302 Q 272.308 50.622 268.014 53.7 Q 263.72 56.778 256.5 56.778 Q 252.016 56.778 248.406 55.638 Q 244.796 54.498 242.44 52.674 Z M 187.796 55.866 L 180.576 55.866 L 180.576 9.05 L 164.236 9.05 L 164.236 2.666 L 204.136 2.666 L 204.136 9.05 L 187.796 9.05 L 187.796 55.866 Z M 236.512 38.918 L 208.848 38.918 Q 209.532 44.466 212.724 47.582 Q 215.916 50.698 221.16 50.698 Q 224.58 50.698 227.316 49.976 Q 230.052 49.254 232.56 48.114 L 234.156 53.966 Q 231.42 55.182 228 55.98 Q 224.58 56.778 220.324 56.778 Q 211.812 56.778 206.834 51.344 Q 201.856 45.91 201.856 36.106 Q 201.856 30.178 204.098 25.504 Q 206.34 20.83 210.368 18.132 Q 214.396 15.434 219.716 15.434 Q 225.416 15.434 229.178 17.904 Q 232.94 20.374 234.84 24.554 Q 236.74 28.734 236.74 33.75 Q 236.74 36.41 236.512 38.918 Z M 208.772 33.37 L 230.432 33.37 Q 230.432 27.594 227.544 24.478 Q 224.656 21.362 219.564 21.362 Q 215.156 21.362 212.268 24.44 Q 209.38 27.518 208.772 33.37 Z M 328.852 42.262 L 328.852 23.718 L 322.012 23.718 L 322.012 17.79 L 329.004 17.79 L 330.448 5.326 L 335.692 5.326 L 335.692 17.79 L 346.636 17.79 L 346.636 23.718 L 335.692 23.718 L 335.692 42.794 Q 335.692 47.202 337.554 48.95 Q 339.416 50.698 342 50.698 Q 343.9 50.698 345.61 50.09 Q 347.32 49.482 348.764 48.646 L 350.664 54.118 Q 349.144 55.03 346.56 55.904 Q 343.976 56.778 341.164 56.778 Q 335.464 56.778 332.158 53.016 Q 328.852 49.254 328.852 42.262 Z M 89.68 19.538 L 89.68 16.346 L 95.912 16.346 L 95.912 46.29 Q 95.912 49.178 97.318 50.052 Q 98.724 50.926 100.396 50.926 L 98.952 56.246 Q 91.656 56.246 90.136 50.318 Q 88.388 52.75 85.386 54.764 Q 82.384 56.778 77.748 56.778 Q 72.808 56.778 68.78 54.27 Q 64.752 51.762 62.358 47.164 Q 59.964 42.566 59.964 36.334 Q 59.964 30.406 62.358 25.694 Q 64.752 20.982 68.97 18.208 Q 73.188 15.434 78.66 15.434 Q 82.08 15.434 84.854 16.612 Q 87.628 17.79 89.68 19.538 Z M 89.072 45.758 L 89.072 24.554 Q 87.02 23.11 84.55 22.236 Q 82.08 21.362 79.344 21.362 Q 75.696 21.362 72.922 23.224 Q 70.148 25.086 68.552 28.392 Q 66.956 31.698 66.956 36.106 Q 66.956 40.362 68.552 43.668 Q 70.148 46.974 72.96 48.836 Q 75.772 50.698 79.268 50.698 Q 82.156 50.698 84.74 49.292 Q 87.324 47.886 89.072 45.758 Z M 372.628 56.778 Q 367.004 56.778 362.52 54.156 Q 358.036 51.534 355.49 46.86 Q 352.944 42.186 352.944 36.106 Q 352.944 29.722 355.528 25.086 Q 358.112 20.45 362.596 17.942 Q 367.08 15.434 372.628 15.434 Q 378.176 15.434 382.622 17.942 Q 387.068 20.45 389.69 25.048 Q 392.312 29.646 392.312 35.954 Q 392.312 42.262 389.728 46.936 Q 387.144 51.61 382.698 54.194 Q 378.252 56.778 372.628 56.778 Z M 372.628 50.698 Q 378.632 50.698 381.976 46.632 Q 385.32 42.566 385.32 36.106 Q 385.32 32.154 383.648 28.848 Q 381.976 25.542 379.126 23.528 Q 376.276 21.514 372.628 21.514 Q 366.624 21.514 363.28 25.466 Q 359.936 29.418 359.936 35.954 Q 359.936 39.906 361.608 43.288 Q 363.28 46.67 366.13 48.684 Q 368.98 50.698 372.628 50.698 Z M 116.356 55.866 L 109.516 55.866 L 109.516 16.346 L 116.356 16.346 L 116.356 55.866 Z M 158.156 32.914 L 132.316 32.914 L 132.316 26.682 L 158.156 26.682 L 158.156 32.914 Z M 112.936 9.582 Q 110.96 9.582 109.554 8.138 Q 108.148 6.694 108.148 4.794 Q 108.148 2.59 109.44 1.298 Q 110.732 0.006 112.936 0.006 Q 114.912 0.006 116.318 1.412 Q 117.724 2.818 117.724 4.794 Q 117.724 6.922 116.432 8.252 Q 115.14 9.582 112.936 9.582 Z"/></g></svg>